<svg width="288" height="208" viewBox="0 0 288 208" fill="none" xmlns="http://www.w3.org/2000/svg">
<path d="M96.509 110.29C96.209 119.223 96.2857 128.153 96.739 137.08C96.7517 137.383 96.6735 137.66 96.519 137.86L96.259 138.21C85.8257 138.25 75.3957 138.267 64.969 138.26C61.569 138.253 58.9557 137.973 57.129 137.42C54.569 136.653 52.1823 135.457 49.969 133.83C49.8987 133.778 49.8184 133.742 49.7333 133.723C49.6481 133.704 49.56 133.703 49.4745 133.72C49.3889 133.737 49.3078 133.772 49.2363 133.822C49.1648 133.871 49.1044 133.936 49.059 134.01C46.6923 137.863 43.7957 141.107 40.369 143.74C37.409 146.02 33.609 147.957 28.969 149.55C19.989 152.623 10.429 153.837 0.289 153.19C-0.051 153.17 -0.091 153.05 0.169 152.83C13.2023 141.823 22.3723 128.037 27.679 111.47C27.7375 111.285 27.7498 111.09 27.7149 110.901C27.68 110.713 27.5989 110.537 27.479 110.39C25.5923 108.023 24.6323 105.393 24.599 102.5C24.339 81.0867 24.1323 59.67 23.979 38.25C23.9457 33.8433 24.589 29.54 25.909 25.34C30.3423 11.16 39.1357 2.92333 52.289 0.63C54.7023 0.210001 61.359 0 72.259 0C97.0257 0 121.789 0 146.549 0C155.082 0 161.009 0.473332 164.329 1.42C170.516 3.18666 175.686 6.52 179.839 11.42C183.019 15.1733 185.439 19.7 187.099 25C188.659 29.9733 189.379 35.1433 189.259 40.51C189.254 40.7055 189.17 40.8913 189.027 41.0276C188.883 41.164 188.69 41.2402 188.489 41.24H164.069C163.866 41.241 163.67 41.1664 163.52 41.0312C163.37 40.896 163.277 40.7099 163.259 40.51C162.832 34.8233 160.422 30.8733 156.029 28.66C154.176 27.7267 151.412 27.2367 147.739 27.19C112.086 26.7233 83.9257 26.7433 63.259 27.25C60.879 27.31 58.6223 28.0767 56.489 29.55C54.6357 30.8233 53.1323 32.5667 51.979 34.78C50.1657 38.26 49.259 42.1667 49.259 46.5C49.2523 66.96 49.3123 82.3933 49.439 92.8C49.4923 96.8067 49.9957 99.86 50.949 101.96C53.469 107.5 58.1557 110.263 65.009 110.25C75.509 110.23 86.009 110.243 96.509 110.29Z" fill="#E2222A"/>
<path d="M96.259 138.21L96.519 137.86C96.6735 137.66 96.7517 137.383 96.739 137.08C96.2857 128.153 96.209 119.223 96.509 110.29C96.5223 101.41 96.6057 94.73 96.759 90.25C97.0057 83.1167 99.049 76.3833 102.889 70.05C107.362 62.6833 113.376 57.8467 120.929 55.54C124.302 54.5133 130.732 54 140.219 54C166.986 54 193.749 54 220.509 54C228.962 54 234.752 54.4533 237.879 55.36C243.839 57.08 248.862 60.3967 252.949 65.31C258.656 72.17 261.759 80.4 262.259 90C262.632 97.0733 262.716 117.99 262.509 152.75C262.482 157.57 261.269 161.627 258.869 164.92C258.777 165.043 258.716 165.187 258.691 165.339C258.667 165.49 258.68 165.645 258.729 165.79C264.056 181.903 273.532 195.6 287.159 206.88C287.859 207.46 287.756 207.75 286.849 207.75C281.782 207.757 277.252 207.603 273.259 207.29C266.872 206.79 260.749 205.383 254.889 203.07C250.916 201.503 247.542 199.613 244.769 197.4C241.769 195 239.082 192.143 236.709 188.83C236.662 188.766 236.602 188.712 236.533 188.672C236.465 188.632 236.388 188.607 236.309 188.599C236.23 188.59 236.15 188.598 236.074 188.623C235.998 188.647 235.928 188.687 235.869 188.74C233.116 191.24 229.746 192.493 225.759 192.5C196.386 192.527 167.009 192.51 137.629 192.45C130.956 192.437 125.966 191.957 122.659 191.01C112.619 188.13 105.339 181.69 100.819 171.69C99.4057 168.563 98.3223 165.053 97.569 161.16C97.0623 158.533 96.7457 154.903 96.619 150.27C96.5123 146.25 96.3923 142.23 96.259 138.21ZM123.049 110.5L123.259 138.21C123.166 139.21 123.082 142.307 123.009 147.5C122.909 154.773 125.579 159.637 131.019 162.09C133.112 163.03 136.339 163.5 140.699 163.5C167.639 163.5 194.576 163.497 221.509 163.49C224.856 163.49 227.752 162.557 230.199 160.69C234.759 157.21 237.012 152.48 236.959 146.5C236.826 130.747 236.742 114.997 236.709 99.25C236.702 94.6567 235.572 90.6367 233.319 87.19C231.506 84.4033 228.819 82.59 225.259 81.75C224.119 81.4833 221.336 81.4233 216.909 81.57C213.416 81.69 210.642 81.75 208.589 81.75C187.489 81.75 166.389 81.75 145.289 81.75C138.102 81.75 133.772 81.97 132.299 82.41C127.406 83.8767 124.392 87.6567 123.259 93.75C122.872 95.8433 122.802 101.427 123.049 110.5Z" fill="#2B4D9E"/>
<path d="M123.259 138.21L123.049 110.5C130.902 110.133 137.139 110.05 141.759 110.25C144.846 110.383 147.762 110.17 150.509 109.61C153.722 108.95 156.296 107.713 158.229 105.9C161.202 103.113 162.732 99.4201 162.819 94.8201C162.822 94.6813 162.875 94.5492 162.969 94.452C163.062 94.3547 163.188 94.3002 163.319 94.3L189.189 94.44C189.327 94.44 189.46 94.4939 189.561 94.5906C189.661 94.6873 189.721 94.8195 189.729 94.9601C189.816 96.5267 189.812 98.01 189.719 99.41C189.539 102.143 189.449 103.543 189.449 103.61C189.049 112.017 186.799 119.21 182.699 125.19C179.486 129.877 175.172 133.33 169.759 135.55C166.192 137.01 160.926 137.91 153.959 138.25C143.732 138.743 133.499 138.73 123.259 138.21Z" fill="#E2222A"/>
</svg>
