<svg xmlns="http://www.w3.org/2000/svg" version="1.1" xmlns:xlink="http://www.w3.org/1999/xlink" xmlns:svgjs="http://svgjs.com/svgjs" width="512" height="512" x="0" y="0" viewBox="0 0 32 32" style="enable-background:new 0 0 512 512" xml:space="preserve" class=""><g><g data-name="Layer 2"><path d="M16 1.2a15 15 0 1 0 15 15 15 15 0 0 0-15-15zm0 28a13 13 0 1 1 13-13 13 13 0 0 1-13 13z" fill="#32C71E" data-original="#000000" class="" opacity="1"></path><path d="M24.27 10.56a1 1 0 0 0-1.41 0l-9.29 9.29a.27.27 0 0 1-.37 0l-4.06-4.06a1 1 0 0 0-1.41 0 1 1 0 0 0 0 1.41l5.47 5.47a.27.27 0 0 0 .37 0L24.27 12a1 1 0 0 0 0-1.41z" fill="#32C71E" data-original="#000000" class="" opacity="1"></path></g></g></svg>