<svg width="688" height="209" viewBox="0 0 688 209" fill="none" xmlns="http://www.w3.org/2000/svg">
<path d="M97 110.79C96.7 119.723 96.7767 128.653 97.23 137.58C97.2427 137.883 97.1645 138.16 97.01 138.36L96.75 138.71C86.3167 138.75 75.8867 138.767 65.46 138.76C62.06 138.753 59.4467 138.473 57.62 137.92C55.06 137.153 52.6733 135.957 50.46 134.33C50.3897 134.278 50.3094 134.242 50.2243 134.223C50.1391 134.204 50.051 134.203 49.9655 134.22C49.8799 134.237 49.7988 134.272 49.7273 134.322C49.6558 134.371 49.5954 134.436 49.55 134.51C47.1833 138.363 44.2867 141.607 40.86 144.24C37.9 146.52 34.1 148.457 29.46 150.05C20.48 153.123 10.92 154.337 0.779997 153.69C0.439997 153.67 0.399997 153.55 0.659997 153.33C13.6933 142.323 22.8633 128.537 28.17 111.97C28.2285 111.785 28.2408 111.59 28.2059 111.401C28.171 111.213 28.0899 111.037 27.97 110.89C26.0833 108.523 25.1233 105.893 25.09 103C24.83 81.5867 24.6233 60.17 24.47 38.75C24.4367 34.3433 25.08 30.04 26.4 25.84C30.8333 11.66 39.6267 3.42333 52.78 1.13C55.1933 0.710001 61.85 0.5 72.75 0.5C97.5167 0.5 122.28 0.5 147.04 0.5C155.573 0.5 161.5 0.973332 164.82 1.92C171.007 3.68666 176.177 7.02 180.33 11.92C183.51 15.6733 185.93 20.2 187.59 25.5C189.15 30.4733 189.87 35.6433 189.75 41.01C189.745 41.2055 189.661 41.3913 189.518 41.5276C189.374 41.664 189.181 41.7402 188.98 41.74H164.56C164.357 41.741 164.161 41.6664 164.011 41.5312C163.861 41.396 163.768 41.2099 163.75 41.01C163.323 35.3233 160.913 31.3733 156.52 29.16C154.667 28.2267 151.903 27.7367 148.23 27.69C112.577 27.2233 84.4167 27.2433 63.75 27.75C61.37 27.81 59.1133 28.5767 56.98 30.05C55.1267 31.3233 53.6233 33.0667 52.47 35.28C50.6567 38.76 49.75 42.6667 49.75 47C49.7433 67.46 49.8033 82.8933 49.93 93.3C49.9833 97.3067 50.4867 100.36 51.44 102.46C53.96 108 58.6467 110.763 65.5 110.75C76 110.73 86.5 110.743 97 110.79Z" fill="#E2222A"/>
<path d="M509.31 96.98C514.97 97.4 520.643 97.4267 526.33 97.06C526.424 97.0531 526.515 97.0266 526.597 96.9823C526.68 96.938 526.752 96.8769 526.809 96.8031C526.865 96.7293 526.906 96.6444 526.926 96.5542C526.947 96.464 526.949 96.3705 526.93 96.28C526.437 93.8 526.133 91.3 526.02 88.78C525.887 85.7533 525.893 83.2367 526.04 81.23C526.307 77.47 527.273 73.94 528.94 70.64C530.527 67.5 532.79 64.7367 535.73 62.35C540.337 58.6033 545.843 56.07 552.25 54.75C557.75 53.6167 562.5 53.0667 566.5 53.1C577.333 53.2 588.23 53.25 599.19 53.25C599.339 53.25 599.481 53.309 599.586 53.414C599.691 53.519 599.75 53.6615 599.75 53.81V74.5C599.75 74.5657 599.737 74.6307 599.712 74.6914C599.687 74.752 599.65 74.8071 599.604 74.8536C599.557 74.9 599.502 74.9368 599.441 74.962C599.381 74.9871 599.316 75 599.25 75C587.623 75 575.993 75 564.36 75C560.727 75 558.03 75.3367 556.27 76.01C553.357 77.1167 551.183 78.9467 549.75 81.5C547.577 85.3667 547.767 89.0933 550.32 92.68C551.987 95.02 554.1 96.43 556.66 96.91C556.993 96.97 559.393 97 563.86 97C583.28 97 603.02 97 623.08 97C623.457 97 623.818 96.8504 624.084 96.5841C624.35 96.3178 624.5 95.9566 624.5 95.58V3.32001C624.5 2.31334 624.84 2.18335 625.52 2.93001C629.06 6.77668 633.19 10.1667 637.91 13.1C641.557 15.36 645.523 16.83 649.81 17.51C649.949 17.5315 650.076 17.6027 650.167 17.7109C650.259 17.819 650.31 17.957 650.31 18.1L650.19 119.19C650.19 119.256 650.177 119.321 650.151 119.381C650.126 119.442 650.088 119.497 650.041 119.544C649.993 119.59 649.937 119.627 649.875 119.652C649.813 119.677 649.747 119.69 649.68 119.69L483.77 119.75C483.632 119.75 483.5 119.695 483.402 119.598C483.305 119.5 483.25 119.368 483.25 119.23L483.31 1.07001C483.31 0.934751 483.363 0.805032 483.456 0.709389C483.55 0.613745 483.677 0.560013 483.81 0.560013L507.36 0.51001C507.535 0.51001 507.708 0.544413 507.869 0.611252C508.03 0.678091 508.177 0.776057 508.3 0.899559C508.424 1.02306 508.522 1.16968 508.589 1.33104C508.656 1.49241 508.69 1.66535 508.69 1.84001L508.81 96.45C508.81 96.5839 508.861 96.713 508.954 96.8113C509.047 96.9096 509.174 96.9699 509.31 96.98Z" fill="#ffffff"/>
<path d="M686.45 2.60004C686.61 2.40004 686.69 2.43004 686.69 2.69004L686.75 119.56C686.75 119.695 686.696 119.825 686.601 119.921C686.505 120.016 686.375 120.07 686.24 120.07L662.18 120C662 120 661.827 119.929 661.699 119.804C661.572 119.678 661.5 119.508 661.5 119.33L661.69 18.69C661.69 18.5489 661.739 18.4115 661.83 18.3005C661.921 18.1896 662.048 18.1119 662.19 18.08C671.977 15.8734 680.063 10.7134 686.45 2.60004Z" fill="#ffffff"/>
<path d="M330.12 29.64C332.353 26.4666 335.203 24.66 338.67 24.22C341.163 23.9 343.597 24.46 345.97 25.9C348.457 27.4066 350.217 29.3566 351.25 31.75C352.33 34.25 352.213 36.6 350.9 38.8C349.873 40.5266 348.417 42.15 346.53 43.67C344.23 45.53 341.623 46.2133 338.71 45.72C336.41 45.34 334.307 44.32 332.4 42.66C330.413 40.9333 329.113 38.88 328.5 36.5C327.927 34.2733 328.467 31.9866 330.12 29.64Z" fill="#ffffff"/>
<path d="M357.79 28.82C360.683 25.3 364.033 23.7366 367.84 24.13C371.14 24.47 374.03 26.06 376.51 28.9C380.603 33.5933 379.537 38.47 373.31 43.53C369.663 46.49 365.813 46.7233 361.76 44.23C360.067 43.19 358.637 41.87 357.47 40.27C354.623 36.3566 354.73 32.54 357.79 28.82Z" fill="#ffffff"/>
<path d="M308.69 65.19C313.23 60.09 318.87 56.5666 325.61 54.62C328.763 53.7066 333.24 53.2466 339.04 53.24C352.187 53.2266 365.147 53.25 377.92 53.31C379.32 53.3166 379.457 53.73 378.33 54.55C376.19 56.11 374.58 58.1066 373.5 60.54C371.64 64.7466 370.57 68.9433 370.29 73.13C370.203 74.41 369.52 75.0366 368.24 75.01C358.66 74.8233 349.263 74.7333 340.05 74.74C335.91 74.74 332.933 75.1233 331.12 75.89C327.76 77.31 325.72 79.82 325 83.42C324.347 86.6933 324.89 89.6133 326.63 92.18C327.91 94.0733 329.653 95.47 331.86 96.37C333.233 96.9233 335.37 97.27 338.27 97.41C344.657 97.71 351.047 98.0033 357.44 98.29C357.577 98.2961 357.708 98.3513 357.81 98.4462C357.912 98.5411 357.979 98.6697 358 98.81C359.06 106.15 362.163 112.707 367.31 118.48C367.897 119.133 367.75 119.473 366.87 119.5C359.47 119.72 352.043 119.82 344.59 119.8C339.237 119.787 334.893 119.303 331.56 118.35C326.153 116.803 321.03 114.373 316.19 111.06C311.63 107.947 307.997 104.163 305.29 99.71C302.55 95.2033 301.157 90.33 301.11 85.09C301.043 77.5633 303.57 70.93 308.69 65.19Z" fill="#ffffff"/>
<path d="M383.07 54.51C383.378 54.1183 383.763 53.8026 384.194 53.5875C384.626 53.3724 385.094 53.2637 385.56 53.27L401.99 53.47C402.337 53.4767 402.417 53.63 402.23 53.93C398.557 59.9767 395.48 66.75 393 74.25C391.7 78.17 391.147 81.92 391.34 85.5C391.633 90.8934 393.823 94.9034 397.91 97.53C399.43 98.4967 401.437 99.0667 403.93 99.24C413.37 99.8867 422.813 99.9367 432.26 99.39C432.3 99.39 433.797 99.3967 436.75 99.41C438.803 99.4234 440.753 99.05 442.6 98.29C444.393 97.5567 445.86 96.3367 447 94.63C450.34 89.61 449.57 84.92 444.69 80.56C441.55 77.76 437.563 76.7967 432.73 77.67C426.763 78.75 423.79 82.36 423.81 88.5C423.817 90.9267 423.983 93.5067 424.31 96.24C424.317 96.3045 424.31 96.3697 424.29 96.4315C424.27 96.4932 424.238 96.55 424.194 96.5981C424.151 96.6463 424.098 96.6847 424.038 96.7109C423.979 96.7371 423.915 96.7504 423.85 96.75H404.13C403.791 96.7494 403.463 96.628 403.206 96.4078C402.949 96.1877 402.78 95.8834 402.73 95.55C401.983 90.59 402.123 86.0067 403.15 81.8C404.217 77.4334 406.127 73.3934 408.88 69.68C411.893 65.6067 415.86 62.4834 420.78 60.31C431.793 55.4434 442.673 55.6667 453.42 60.98C460.587 64.5267 465.773 69.9634 468.98 77.29C470.82 81.5167 471.353 85.91 470.58 90.47C467.427 108.897 456.42 118.607 437.56 119.6C429.033 120.053 418.43 120.103 405.75 119.75C402.037 119.65 398.603 119.183 395.45 118.35C392.157 117.49 389.16 115.893 386.46 113.56C379.527 107.56 375.313 99.7867 373.82 90.24C371.753 76.98 374.837 65.07 383.07 54.51Z" fill="#ffffff"/>
<path d="M96.75 138.71L97.01 138.36C97.1645 138.16 97.2427 137.883 97.23 137.58C96.7767 128.653 96.7 119.723 97 110.79C97.0133 101.91 97.0967 95.23 97.25 90.75C97.4967 83.6167 99.54 76.8833 103.38 70.55C107.853 63.1833 113.867 58.3467 121.42 56.04C124.793 55.0133 131.223 54.5 140.71 54.5C167.477 54.5 194.24 54.5 221 54.5C229.453 54.5 235.243 54.9533 238.37 55.86C244.33 57.58 249.353 60.8967 253.44 65.81C259.147 72.67 262.25 80.9 262.75 90.5C263.123 97.5733 263.207 118.49 263 153.25C262.973 158.07 261.76 162.127 259.36 165.42C259.268 165.543 259.207 165.687 259.182 165.839C259.158 165.99 259.171 166.145 259.22 166.29C264.547 182.403 274.023 196.1 287.65 207.38C288.35 207.96 288.247 208.25 287.34 208.25C282.273 208.257 277.743 208.103 273.75 207.79C267.363 207.29 261.24 205.883 255.38 203.57C251.407 202.003 248.033 200.113 245.26 197.9C242.26 195.5 239.573 192.643 237.2 189.33C237.153 189.266 237.093 189.212 237.024 189.172C236.956 189.132 236.879 189.107 236.8 189.099C236.721 189.09 236.641 189.098 236.565 189.123C236.489 189.147 236.419 189.187 236.36 189.24C233.607 191.74 230.237 192.993 226.25 193C196.877 193.027 167.5 193.01 138.12 192.95C131.447 192.937 126.457 192.457 123.15 191.51C113.11 188.63 105.83 182.19 101.31 172.19C99.8967 169.063 98.8133 165.553 98.06 161.66C97.5533 159.033 97.2367 155.403 97.11 150.77C97.0033 146.75 96.8833 142.73 96.75 138.71ZM123.54 111L123.75 138.71C123.657 139.71 123.573 142.807 123.5 148C123.4 155.273 126.07 160.137 131.51 162.59C133.603 163.53 136.83 164 141.19 164C168.13 164 195.067 163.997 222 163.99C225.347 163.99 228.243 163.057 230.69 161.19C235.25 157.71 237.503 152.98 237.45 147C237.317 131.247 237.233 115.497 237.2 99.75C237.193 95.1567 236.063 91.1367 233.81 87.69C231.997 84.9033 229.31 83.09 225.75 82.25C224.61 81.9833 221.827 81.9233 217.4 82.07C213.907 82.19 211.133 82.25 209.08 82.25C187.98 82.25 166.88 82.25 145.78 82.25C138.593 82.25 134.263 82.47 132.79 82.91C127.897 84.3767 124.883 88.1567 123.75 94.25C123.363 96.3433 123.293 101.927 123.54 111Z" fill="#ffffff"/>
<path d="M123.75 138.71L123.54 111C131.393 110.633 137.63 110.55 142.25 110.75C145.337 110.883 148.253 110.67 151 110.11C154.213 109.45 156.787 108.213 158.72 106.4C161.693 103.613 163.223 99.9201 163.31 95.3201C163.313 95.1813 163.366 95.0492 163.46 94.952C163.553 94.8547 163.679 94.8002 163.81 94.8L189.68 94.94C189.818 94.94 189.951 94.9939 190.052 95.0906C190.152 95.1873 190.212 95.3195 190.22 95.4601C190.307 97.0267 190.303 98.51 190.21 99.91C190.03 102.643 189.94 104.043 189.94 104.11C189.54 112.517 187.29 119.71 183.19 125.69C179.977 130.377 175.663 133.83 170.25 136.05C166.683 137.51 161.417 138.41 154.45 138.75C144.223 139.243 133.99 139.23 123.75 138.71Z" fill="#E2222A"/>
<path d="M332.7 195.51C327.94 195.057 322.677 195.003 316.91 195.35C316.6 195.368 316.299 195.491 316.045 195.703C315.792 195.916 315.598 196.207 315.49 196.54L312.65 205.23C312.277 206.363 311.377 207.03 309.95 207.23C307.103 207.617 304.923 207.68 303.41 207.42C300.997 207.007 300.16 205.633 300.9 203.3C306.16 186.82 311.547 170.49 317.06 154.31C317.647 152.597 318.803 151.713 320.53 151.66C321.99 151.62 322.803 151.59 322.97 151.57C324.123 151.443 325.273 151.44 326.42 151.56C326.513 151.567 327.4 151.6 329.08 151.66C331.233 151.733 332.727 152.993 333.56 155.44C341.547 178.933 346.667 194.177 348.92 201.17C349.42 202.73 349.537 203.977 349.27 204.91C348.803 206.53 347.63 207.36 345.75 207.4C343.637 207.447 342.473 207.477 342.26 207.49C340.92 207.583 339.597 207.447 338.29 207.08C337.986 206.996 337.718 206.805 337.53 206.54C335.31 203.387 333.887 199.893 333.26 196.06C333.237 195.917 333.17 195.785 333.069 195.686C332.967 195.586 332.838 195.525 332.7 195.51ZM323.94 170.18L320.04 183C320.014 183.086 320.009 183.178 320.026 183.267C320.043 183.356 320.082 183.441 320.139 183.513C320.197 183.586 320.271 183.646 320.356 183.687C320.441 183.728 320.535 183.749 320.63 183.75H328.68C328.789 183.751 328.896 183.726 328.993 183.677C329.09 183.628 329.174 183.556 329.238 183.468C329.302 183.38 329.343 183.278 329.359 183.17C329.375 183.063 329.365 182.953 329.33 182.85L324.82 170.17C324.507 169.283 324.213 169.287 323.94 170.18Z" fill="#ffffff"/>
<path d="M359.48 206.67C358.133 205.777 357.46 204.387 357.46 202.5C357.487 187.087 357.5 171.213 357.5 154.88C357.5 153.687 358.04 152.827 359.12 152.3C361.713 151.047 364.843 151.03 368.51 152.25C369.67 152.643 370.25 153.45 370.25 154.67V194.59C370.25 194.765 370.32 194.933 370.443 195.057C370.567 195.18 370.735 195.25 370.91 195.25H384.44C385.58 195.25 386.34 195.79 386.72 196.87C387.733 199.803 387.73 202.807 386.71 205.88C386.576 206.279 386.32 206.627 385.979 206.872C385.638 207.118 385.229 207.25 384.81 207.25H361.39C360.712 207.25 360.047 207.048 359.48 206.67Z" fill="#ffffff"/>
<path d="M391.04 206.08C390.32 205.173 390.223 204.08 390.75 202.8C391.223 201.653 391.47 201.057 391.49 201.01C396.623 185.037 401.983 169.133 407.57 153.3C407.714 152.889 407.971 152.526 408.312 152.252C408.653 151.978 409.064 151.804 409.5 151.75C412.667 151.363 416.36 151.427 420.58 151.94C420.945 151.983 421.295 152.112 421.601 152.315C421.907 152.518 422.16 152.791 422.34 153.11C423.42 155.01 424.22 156.8 424.74 158.48C425.207 160.013 425.453 160.81 425.48 160.87C429.22 171.677 433.727 185.303 439 201.75C439.58 203.57 439.413 205.007 438.5 206.06C437.847 206.813 436.68 207.203 435 207.23C433 207.27 430.997 207.277 428.99 207.25C427.85 207.237 427.04 206.713 426.56 205.68C425.2 202.74 424.173 199.657 423.48 196.43C423.427 196.175 423.294 195.944 423.099 195.771C422.904 195.598 422.659 195.493 422.4 195.47C417.64 195.063 412.49 195.003 406.95 195.29C406.715 195.302 406.489 195.382 406.299 195.521C406.109 195.659 405.963 195.85 405.88 196.07C405.047 198.217 404.273 200.457 403.56 202.79C402.987 204.683 402.26 205.927 401.38 206.52C400.173 207.32 398.63 207.647 396.75 207.5C395.483 207.4 394.47 207.313 393.71 207.24C392.45 207.12 391.56 206.733 391.04 206.08ZM413.71 170.69C412.397 174.717 411.093 178.69 409.8 182.61C409.757 182.741 409.746 182.881 409.767 183.017C409.788 183.153 409.84 183.282 409.92 183.394C410 183.505 410.106 183.595 410.227 183.657C410.349 183.719 410.484 183.751 410.62 183.75H418.47C418.591 183.749 418.709 183.72 418.816 183.664C418.923 183.607 419.014 183.526 419.083 183.427C419.152 183.328 419.195 183.214 419.211 183.094C419.226 182.975 419.212 182.853 419.17 182.74C417.717 178.713 416.433 174.733 415.32 170.8C415.207 170.4 415.05 170.117 414.85 169.95C414.377 169.57 413.997 169.817 413.71 170.69Z" fill="#ffffff"/>
<path d="M621.43 195.52C616.223 195.06 611.017 195.06 605.81 195.52C605.66 195.532 605.516 195.586 605.394 195.676C605.272 195.766 605.177 195.889 605.12 196.03C604.36 197.923 603.403 200.663 602.25 204.25C601.603 206.257 600.357 207.377 598.51 207.61C597.643 207.717 596.13 207.72 593.97 207.62C590.277 207.447 589.12 205.157 590.5 200.75C595.46 184.917 600.733 169.183 606.32 153.55C606.466 153.135 606.72 152.766 607.055 152.481C607.391 152.196 607.796 152.006 608.23 151.93C610.757 151.477 613.3 151.35 615.86 151.55C617.92 151.703 619.17 151.87 619.61 152.05C620.803 152.537 621.683 153.603 622.25 155.25C629.55 176.343 634.707 191.837 637.72 201.73C638.193 203.297 638.283 204.493 637.99 205.32C637.483 206.727 636.237 207.397 634.25 207.33C632.497 207.277 630.417 207.25 628.01 207.25C626.657 207.25 625.78 206.683 625.38 205.55L622.06 196.05C622.007 195.903 621.919 195.776 621.807 195.682C621.696 195.588 621.565 195.532 621.43 195.52ZM612.53 170.63L608.82 183.18C608.799 183.246 608.795 183.317 608.808 183.385C608.82 183.453 608.849 183.518 608.892 183.574C608.935 183.629 608.991 183.674 609.055 183.705C609.119 183.736 609.189 183.751 609.26 183.75H617.66C617.737 183.749 617.812 183.73 617.88 183.695C617.948 183.659 618.007 183.608 618.051 183.546C618.096 183.484 618.126 183.412 618.138 183.336C618.149 183.26 618.143 183.183 618.12 183.11L614.05 170.65C613.517 169.017 613.01 169.01 612.53 170.63Z" fill="#ffffff"/>
<path d="M673.94 184.54L659.49 184.5C659.36 184.5 659.235 184.554 659.144 184.649C659.052 184.745 659 184.875 659 185.01V203.71C659 204.883 658.483 205.75 657.45 206.31C654.57 207.883 651.333 207.993 647.74 206.64C646.627 206.22 646.067 205.417 646.06 204.23C645.987 189.063 645.967 173.67 646 158.05C646 158.003 645.957 157.303 645.87 155.95C645.737 153.823 646.52 152.503 648.22 151.99C649.247 151.677 650.77 151.533 652.79 151.56C654.33 151.58 655.943 151.883 657.63 152.47C658.058 152.618 658.428 152.899 658.683 153.272C658.939 153.645 659.068 154.089 659.05 154.54C658.83 160.68 658.943 166.353 659.39 171.56C659.405 171.698 659.469 171.825 659.571 171.917C659.672 172.01 659.804 172.061 659.94 172.06L673.55 171.94C673.874 171.937 674.184 171.804 674.414 171.569C674.643 171.333 674.775 171.014 674.78 170.68L675 153.33C675.002 153.102 675.082 152.88 675.226 152.698C675.37 152.515 675.572 152.383 675.8 152.32C679.12 151.367 682.5 151.36 685.94 152.3C686.39 152.423 686.788 152.688 687.072 153.055C687.356 153.421 687.509 153.87 687.51 154.33V203.77C687.51 205.27 686.78 206.257 685.32 206.73C681.707 207.903 678.513 207.723 675.74 206.19C675.601 206.114 675.479 206.011 675.381 205.885C675.283 205.76 675.211 205.615 675.17 205.46C674.77 203.96 674.63 202.14 674.75 200C674.97 195.96 674.877 190.98 674.47 185.06C674.462 184.92 674.403 184.787 674.305 184.691C674.206 184.594 674.076 184.54 673.94 184.54Z" fill="#ffffff"/>
<path d="M477.23 185.2C477.543 186.133 477.86 186.133 478.18 185.2C481.513 175.54 485.057 165.96 488.81 156.46C489.463 154.807 490.193 153.697 491 153.13C491.973 152.443 493.113 152.123 494.42 152.17C495.467 152.21 496.023 152.23 496.09 152.23C498.403 152.183 500.713 152.227 503.02 152.36C504.68 152.46 505.847 152.92 506.52 153.74C507.34 154.74 507.75 156.077 507.75 157.75C507.75 172.383 507.75 187.017 507.75 201.65C507.75 203.623 507.73 204.687 507.69 204.84C507.37 205.96 506.41 206.7 504.81 207.06C501.223 207.88 498.343 207.29 496.17 205.29C496.057 205.186 495.966 205.058 495.904 204.913C495.842 204.769 495.81 204.611 495.81 204.45C495.697 191.223 495.677 182.657 495.75 178.75C495.79 176.51 495.66 174.673 495.36 173.24C495.293 172.9 495.197 172.893 495.07 173.22C491.457 182.693 488.247 192.303 485.44 202.05C484.533 205.19 482.24 206.943 478.56 207.31C476.393 207.53 474.567 207.223 473.08 206.39C471.9 205.73 470.93 204.33 470.17 202.19C466.097 190.717 462.873 181.237 460.5 173.75C460.36 173.317 460.18 173.09 459.96 173.07C459.903 173.064 459.845 173.077 459.791 173.108C459.736 173.139 459.686 173.188 459.644 173.251C459.602 173.314 459.568 173.39 459.545 173.475C459.522 173.559 459.51 173.649 459.51 173.74L459.26 204.75C459.26 204.905 459.224 205.058 459.154 205.197C459.085 205.336 458.984 205.457 458.86 205.55C455.66 207.943 452.12 208.163 448.24 206.21C447.948 206.062 447.703 205.839 447.532 205.566C447.361 205.292 447.27 204.979 447.27 204.66L447.25 155.98C447.25 153.807 448.35 152.633 450.55 152.46C453.677 152.213 456.993 152.143 460.5 152.25C462.607 152.317 464.26 152.863 465.46 153.89C466.213 154.53 466.987 155.937 467.78 158.11C471.087 167.163 474.237 176.193 477.23 185.2Z" fill="#ffffff"/>
<path d="M568.38 173.24L568.22 173.26C568.178 173.266 568.136 173.289 568.099 173.326C568.062 173.363 568.031 173.413 568.01 173.47C564.603 183.01 561.32 192.593 558.16 202.22C557.593 203.96 556.763 205.2 555.67 205.94C552.75 207.933 549.287 207.95 545.28 205.99C544.951 205.829 544.657 205.602 544.415 205.322C544.173 205.042 543.987 204.715 543.87 204.36L533.46 173.36C533.43 173.273 533.392 173.19 533.348 173.115C533.303 173.04 533.253 172.975 533.201 172.925C533.148 172.874 533.095 172.839 533.043 172.821C532.991 172.803 532.943 172.803 532.9 172.82C532.747 172.887 532.667 173.133 532.66 173.56C532.52 183.46 532.467 193.69 532.5 204.25C532.503 204.727 532.363 205.193 532.1 205.59C531.836 205.988 531.46 206.297 531.02 206.48C527.653 207.873 524.54 207.837 521.68 206.37C521.253 206.153 520.893 205.823 520.641 205.416C520.389 205.008 520.253 204.539 520.25 204.06C520.183 188.353 520.12 173 520.06 158C520.053 156.187 520.603 154.75 521.71 153.69C522.523 152.91 523.84 152.457 525.66 152.33C529.833 152.043 533.3 152.08 536.06 152.44C537.347 152.607 538.417 153.23 539.27 154.31C539.73 154.89 540.237 155.947 540.79 157.48C544.05 166.6 547.157 175.63 550.11 184.57C550.583 185.997 551.067 186 551.56 184.58C554.973 174.747 558.537 164.97 562.25 155.25C563.083 153.07 564.76 152.03 567.28 152.13C568.833 152.183 569.647 152.21 569.72 152.21C572.007 152.157 574.293 152.217 576.58 152.39C578.073 152.51 579.153 152.98 579.82 153.8C580.627 154.793 581.03 156.027 581.03 157.5C581.01 172.92 581 188.597 581 204.53C581 204.942 580.887 205.346 580.671 205.697C580.456 206.049 580.147 206.333 579.78 206.52C576.973 207.94 573.803 207.87 570.27 206.31C569.25 205.857 568.74 205.067 568.74 203.94L568.69 173.63C568.69 173.577 568.682 173.524 568.666 173.474C568.65 173.425 568.627 173.38 568.597 173.343C568.568 173.307 568.534 173.278 568.496 173.261C568.459 173.243 568.419 173.236 568.38 173.24Z" fill="#ffffff"/>
</svg>
