<svg xmlns="http://www.w3.org/2000/svg" version="1.1" xmlns:xlink="http://www.w3.org/1999/xlink" xmlns:svgjs="http://svgjs.com/svgjs" width="512" height="512" x="0" y="0" viewBox="0 0 512 512" style="enable-background:new 0 0 512 512" xml:space="preserve"><g><path fill="#FFDF40" d="M295.503 360H45c-24.814 0-45-20.186-45-45 0-7.676 1.978-15.015 5.874-21.841L155.786 23.32C163.652 8.965 178.696 0 195 0s31.348 8.965 39.258 23.394l143.35 257.607a15.037 15.037 0 0 1 .645 13.286 15.026 15.026 0 0 1-10.181 8.584c-25.532 6.255-47.593 24.404-59.004 48.545A15.014 15.014 0 0 1 295.503 360z" data-original="#ffdf40"></path><path fill="#FFBE40" d="M295.503 360c5.801 0 11.074-3.34 13.564-8.584 11.411-24.141 33.472-42.29 59.004-48.545a15.026 15.026 0 0 0 10.181-8.584 15.037 15.037 0 0 0-.645-13.286L234.258 23.394C226.348 8.965 211.304 0 195 0v360z" data-original="#ffbe40"></path><path fill="#4D4D80" d="M195 210c-8.291 0-15-6.709-15-15v-60c0-8.291 6.709-15 15-15s15 6.709 15 15v60c0 8.291-6.709 15-15 15z" data-original="#4d4d80"></path><circle cx="195" cy="255" r="15" fill="#4D4D80" data-original="#4d4d80"></circle><circle cx="392" cy="392" r="120" fill="#59ABFF" data-original="#59abff"></circle><path fill="#4D87FF" d="M512 392c0-66.275-53.725-120-120-120v240c66.275 0 120-53.725 120-120z" data-original="#4d87ff"></path><circle cx="392" cy="392" r="90" fill="#F3F5F9" data-original="#f3f5f9"></circle><path fill="#E1E6F0" d="M482 392c0-49.629-40.371-90-90-90v180c49.629 0 90-40.371 90-90z" data-original="#e1e6f0"></path><path fill="#4D4D80" d="M437 407h-45c-8.291 0-15-6.709-15-15v-45c0-8.291 6.709-15 15-15s15 6.709 15 15v30h30c8.291 0 15 6.709 15 15s-6.709 15-15 15z" data-original="#4d4d80"></path><path fill="#443D66" d="M437 407c8.291 0 15-6.709 15-15s-6.709-15-15-15h-30v-30c0-8.291-6.709-15-15-15v75z" data-original="#443d66"></path><g fill="#443D66"><path d="M210 255c0-8.284-6.716-15-15-15v30c8.284 0 15-6.716 15-15zM210 195v-60c0-8.291-6.709-15-15-15v90c8.291 0 15-6.709 15-15z" fill="#443D66" data-original="#443d66"></path></g></g></svg>