<svg xmlns="http://www.w3.org/2000/svg" version="1.1" xmlns:xlink="http://www.w3.org/1999/xlink" xmlns:svgjs="http://svgjs.com/svgjs" width="512" height="512" x="0" y="0" viewBox="0 0 512 512" style="enable-background:new 0 0 512 512" xml:space="preserve"><g><path fill="#ECEAEC" d="M173.42 256c0 45.608 36.973 82.581 82.581 82.581s82.581-36.973 82.581-82.581-36.973-82.581-82.581-82.581S173.42 210.392 173.42 256zm33.032 0c0-27.365 22.183-49.548 49.548-49.548s49.548 22.183 49.548 49.548c0 27.364-22.183 49.548-49.548 49.548S206.452 283.364 206.452 256z" data-original="#eceaec"></path><path fill="#DBD8DB" d="M367.686 157.845a144.934 144.934 0 0 0-6.467-6.908 144.432 144.432 0 0 0-6.908-6.466c-4.807-4.216-12.016-4.184-16.883-.038l-17.18 14.635c-12.255-8.126-26.115-14.019-41.03-17.037l-1.796-22.454c-.51-6.372-5.585-11.492-11.965-11.91-3.126-.205-6.279-.312-9.457-.312s-6.331.107-9.457.312c-6.38.418-11.455 5.538-11.965 11.91l-1.796 22.454c-14.915 3.018-28.775 8.911-41.03 17.037l-17.18-14.635c-4.867-4.146-12.075-4.177-16.883.038-2.355 2.066-4.66 4.219-6.908 6.466s-4.401 4.552-6.467 6.908c-4.216 4.806-4.184 12.016-.038 16.883l14.635 17.18c-8.126 12.255-14.019 26.115-17.037 41.03l-22.454 1.796c-6.373.51-11.493 5.585-11.911 11.965-.205 3.127-.312 6.279-.312 9.457s.107 6.331.312 9.457c.418 6.38 5.538 11.455 11.911 11.965l22.454 1.796c3.018 14.915 8.911 28.776 17.037 41.03l-14.635 17.18c-4.146 4.867-4.177 12.076.038 16.883 2.066 2.355 4.219 4.66 6.467 6.908s4.553 4.401 6.908 6.466c4.807 4.216 12.016 4.184 16.883.039l17.18-14.635a116.713 116.713 0 0 0 19.001 10.216l88.228-5.354 57.774-55.167 5.601-94.214a116.895 116.895 0 0 0-9.266-16.819l14.635-17.18c4.145-4.866 4.177-12.075-.039-16.882zm-111.685 164.22c-27.725 0-51.461-17.078-61.262-41.289l-16.084-20.188c0-36.486 40.859-80.145 77.345-80.145l16.575 11.589c28.464 7.354 49.489 33.206 49.489 63.968.001 36.486-29.577 66.065-66.063 66.065z" data-original="#dbd8db"></path><path fill="#ECEAEC" d="M302.03 20.402a16.437 16.437 0 0 0 .296 9.536c1.707 5.064 11.913 7.918 11.913 7.918l16.833-13.575s.419-12.445-7.734-15.229c-.354-.121-.714-.23-1.08-.329-8.81-2.361-17.867 2.868-20.228 11.679z" data-original="#eceaec"></path><path fill="#98DB7C" d="M256.001 512c-141.161 0-256-114.839-256-256S114.84 0 256.001 0c9.121 0 16.516 7.395 16.516 16.516 0 .217-.004.433-.012.648l-16.504 10.483C133.057 27.647 25.1 133.056 25.1 256s107.958 228.95 230.901 228.95c57.524 0 116.464-23.271 158.093-62.932l18.615-4.411c.139.136.277.276.413.418 6.29 6.605 6.04 17.065-.565 23.355C384.751 486.919 322.049 512 256.001 512z" data-original="#98db7c"></path><path fill="#77CC7D" d="M409.767 417.46c-41.629 39.661-96.242 61.508-153.766 61.508-122.944 0-222.968-100.024-222.968-222.968S133.057 33.032 256.001 33.032c8.907 0 16.167-7.043 16.504-15.868-5.443-.37-10.967-.648-16.504-.648-132.263 0-239.484 107.22-239.484 239.484 0 132.263 107.221 239.484 239.484 239.484 69.956 0 132.923-30.046 176.708-77.877-6.341-6.198-16.481-6.301-22.942-.147z" data-original="#77cc7d"></path><path fill="#DBD8DB" d="M323.338 9.052a16.684 16.684 0 0 1 .286 9.586c-2.361 8.811-11.417 14.04-20.228 11.679-.375-.1-.708-.255-1.07-.379a16.463 16.463 0 0 0 11.383 10.692c8.811 2.361 17.867-2.868 20.228-11.678 2.261-8.437-2.461-17.107-10.599-19.9z" data-original="#dbd8db"></path><path fill="#C9C5C9" d="M232.499 352.289c11.86 2.888 24.555 3.641 37.66 1.823 40.988-5.688 74.724-37.398 82.905-77.962 3.225-15.989 2.485-31.404-1.308-45.578-2.369-8.851 2.226-18.124 10.599-21.845a115.01 115.01 0 0 1 7.771 24.211l22.454 1.796c6.373.51 11.493 5.586 11.911 11.966.205 3.126.312 6.278.312 9.456s-.107 6.33-.312 9.456c-.418 6.38-5.537 11.456-11.911 11.966l-22.454 1.796c-3.018 14.915-8.911 28.776-17.037 41.03l14.635 17.18c4.146 4.867 4.177 12.077-.039 16.883-2.066 2.355-4.219 4.66-6.466 6.907s-4.553 4.401-6.908 6.466c-4.807 4.216-12.016 4.185-16.883.039l-17.18-14.635c-12.255 8.126-26.114 14.019-41.03 17.037l-1.796 22.453c-.51 6.372-5.584 11.491-11.962 11.91-3.127.205-6.281.313-9.46.313s-6.333-.107-9.46-.313c-6.378-.419-11.452-5.538-11.962-11.91l-1.796-22.453a114.921 114.921 0 0 1-22.029-6.82l.106-.251c3.564-8.462 12.718-13.093 21.64-10.921zM247.831 173.818a84.335 84.335 0 0 1 6.345-.379c10.174-.222 18.4 8.416 18.4 18.593-14.386-3.711-30.506-3.189-47.715 6.238-17.364 9.512-30.32 26.238-33.84 45.721-2.377 13.157-.774 25.7 3.717 36.785l-2.328-.002c-9.551 0-17.672-7.198-18.599-16.704a83.838 83.838 0 0 1 .086-17.035c4.079-38.344 35.555-69.475 73.934-73.217z" data-original="#c9c5c9"></path><path fill="#ECEAEC" d="M359.788 44.328a16.437 16.437 0 0 0 .296 9.536c1.707 5.064 11.913 7.918 11.913 7.918l16.833-13.575s.419-12.445-7.734-15.229c-.354-.121-.714-.23-1.08-.329-8.811-2.361-17.867 2.868-20.228 11.679z" data-original="#eceaec"></path><path fill="#DBD8DB" d="M381.096 32.977a16.684 16.684 0 0 1 .286 9.586c-2.361 8.811-11.417 14.04-20.228 11.679-.375-.1-.708-.255-1.07-.379a16.463 16.463 0 0 0 11.383 10.692c8.811 2.361 17.867-2.868 20.228-11.678 2.261-8.437-2.461-17.106-10.599-19.9z" data-original="#dbd8db"></path><path fill="#ECEAEC" d="M409.384 82.389a16.437 16.437 0 0 0 .296 9.536c1.707 5.064 11.913 7.918 11.913 7.918l16.833-13.575s.419-12.445-7.734-15.229c-.354-.121-.714-.23-1.08-.329-8.811-2.361-17.867 2.868-20.228 11.679z" data-original="#eceaec"></path><path fill="#DBD8DB" d="M430.692 71.039a16.684 16.684 0 0 1 .286 9.586c-2.361 8.811-11.417 14.04-20.228 11.679-.375-.1-.708-.255-1.07-.379a16.463 16.463 0 0 0 11.383 10.692c8.811 2.361 17.867-2.868 20.228-11.678 2.26-8.437-2.461-17.107-10.599-19.9z" data-original="#dbd8db"></path><path fill="#ECEAEC" d="M447.445 131.985a16.437 16.437 0 0 0 .296 9.536c1.707 5.064 11.913 7.918 11.913 7.918l16.833-13.575s.419-12.445-7.734-15.229c-.354-.121-.714-.23-1.08-.329-8.811-2.361-17.867 2.868-20.228 11.679z" data-original="#eceaec"></path><path fill="#DBD8DB" d="M468.753 120.635a16.684 16.684 0 0 1 .286 9.586c-2.361 8.811-11.417 14.04-20.228 11.679-.374-.1-.708-.255-1.07-.379a16.463 16.463 0 0 0 11.383 10.692c8.811 2.361 17.867-2.868 20.228-11.678 2.261-8.437-2.461-17.107-10.599-19.9z" data-original="#dbd8db"></path><path fill="#ECEAEC" d="M471.371 189.742a16.437 16.437 0 0 0 .296 9.536c1.707 5.064 11.913 7.918 11.913 7.918l16.833-13.575s.419-12.445-7.734-15.229c-.354-.121-.714-.23-1.08-.329-8.811-2.36-17.867 2.869-20.228 11.679z" data-original="#eceaec"></path><path fill="#DBD8DB" d="M492.679 178.392a16.684 16.684 0 0 1 .286 9.586c-2.361 8.811-11.417 14.04-20.228 11.679-.375-.1-.708-.255-1.07-.379a16.463 16.463 0 0 0 11.383 10.692c8.811 2.361 17.867-2.868 20.228-11.678 2.261-8.437-2.461-17.106-10.599-19.9z" data-original="#dbd8db"></path><path fill="#ECEAEC" d="M479.527 251.729a16.437 16.437 0 0 0 .296 9.536c1.707 5.064 11.913 7.918 11.913 7.918l16.833-13.575s.419-12.445-7.734-15.229c-.354-.121-.714-.23-1.08-.329-8.811-2.36-17.867 2.869-20.228 11.679z" data-original="#eceaec"></path><path fill="#DBD8DB" d="M500.835 240.379a16.684 16.684 0 0 1 .286 9.586c-2.361 8.811-11.417 14.04-20.228 11.679-.374-.1-.708-.255-1.07-.379a16.463 16.463 0 0 0 11.383 10.692c8.811 2.361 17.867-2.868 20.228-11.678 2.261-8.437-2.461-17.106-10.599-19.9z" data-original="#dbd8db"></path><path fill="#ECEAEC" d="M471.371 313.708a16.437 16.437 0 0 0 .296 9.536c1.707 5.064 11.913 7.918 11.913 7.918l16.833-13.575s.419-12.445-7.734-15.229c-.354-.121-.714-.23-1.08-.329-8.811-2.36-17.867 2.868-20.228 11.679z" data-original="#eceaec"></path><path fill="#DBD8DB" d="M492.679 302.358a16.684 16.684 0 0 1 .286 9.586c-2.361 8.811-11.417 14.04-20.228 11.679-.375-.1-.708-.255-1.07-.379a16.463 16.463 0 0 0 11.383 10.692c8.811 2.361 17.867-2.868 20.228-11.678 2.261-8.437-2.461-17.106-10.599-19.9z" data-original="#dbd8db"></path><path fill="#ECEAEC" d="M446.768 372.338a16.437 16.437 0 0 0 .296 9.536c1.707 5.064 11.913 7.918 11.913 7.918l16.833-13.575s.419-12.445-7.734-15.229c-.354-.121-.714-.23-1.08-.329-8.811-2.361-17.868 2.868-20.228 11.679z" data-original="#eceaec"></path><path fill="#DBD8DB" d="M468.075 360.987a16.684 16.684 0 0 1 .286 9.586c-2.361 8.811-11.417 14.04-20.228 11.679-.375-.1-.708-.255-1.07-.379a16.463 16.463 0 0 0 11.383 10.692c8.811 2.361 17.867-2.868 20.228-11.678 2.261-8.436-2.461-17.106-10.599-19.9z" data-original="#dbd8db"></path></g></svg>