<svg xmlns="http://www.w3.org/2000/svg" version="1.1" xmlns:xlink="http://www.w3.org/1999/xlink" xmlns:svgjs="http://svgjs.com/svgjs" width="512" height="512" x="0" y="0" viewBox="0 0 110 110" style="enable-background:new 0 0 512 512" xml:space="preserve"><g><circle cx="51" cy="59" r="50" fill="#E7EFFF" data-original="#e7efff"></circle><circle cx="4" cy="9" r="3" fill="#00C99F" data-original="#00c99f"></circle><circle cx="101" cy="4" r="3" fill="#FFA100" data-original="#ffa100"></circle><circle cx="106" cy="90.98" r="3" fill="#00C99F" data-original="#00c99f"></circle><circle cx="7" cy="106" r="3" fill="#FF4D69" data-original="#ff4d69"></circle><path fill="#A5BCED" d="M88 20v72.62A50.07 50.07 0 0 1 72.81 104H29.19A50.07 50.07 0 0 1 14 92.62V10a4 4 0 0 1 4-4h56z" data-original="#a5bced"></path><path fill="#4E6AFF" d="M88 20H76a2 2 0 0 1-2-2V6z" data-original="#4e6aff"></path><circle cx="51" cy="32" r="19" fill="#FFA100" data-original="#ffa100"></circle><path fill="#FFFFFF" d="M51 45a2 2 0 1 1 2-2 2 2 0 0 1-2 2z" data-original="#ffffff"></path><circle cx="25" cy="61" r="3" fill="#4E6AFF" data-original="#4e6aff"></circle><path fill="#FFFFFF" d="M77 62H33a1 1 0 0 1 0-2h44a1 1 0 0 1 0 2z" data-original="#ffffff"></path><circle cx="25" cy="71" r="3" fill="#4E6AFF" data-original="#4e6aff"></circle><path fill="#FFFFFF" d="M77 72H33a1 1 0 0 1 0-2h44a1 1 0 0 1 0 2z" data-original="#ffffff"></path><circle cx="25" cy="81" r="3" fill="#4E6AFF" data-original="#4e6aff"></circle><path fill="#FFFFFF" d="M77 82H33a1 1 0 0 1 0-2h44a1 1 0 0 1 0 2z" data-original="#ffffff"></path><circle cx="25" cy="91" r="3" fill="#4E6AFF" data-original="#4e6aff"></circle><path fill="#FFFFFF" d="M77 92H33a1 1 0 0 1 0-2h44a1 1 0 0 1 0 2z" data-original="#ffffff"></path><path fill="#4E6AFF" d="m97.973 38.897 7.136 3.616-13.56 26.76-7.136-3.616zM76.25 90.65a1 1 0 0 1-.44-1.34l.45-.89a1 1 0 1 1 1.78.9l-.45.89a1 1 0 0 1-1.34.44z" data-original="#4e6aff"></path><path fill="#323FD4" d="m103.806 34.012 1.784.904a2 2 0 0 1 .88 2.688l-2.26 4.46-5.352-2.712 2.26-4.46a2 2 0 0 1 2.688-.88z" data-original="#323fd4"></path><path fill="#8FA2FF" d="m83.43 85.33-5.39 3.99-1.78-.9.03-6.71zM95.14 68.84a1 1 0 0 1-.14-1.7c1.51-1.12 1.57-1.12 1.71-1.4l10.18-20.09a1 1 0 0 0-.44-1.35l-8.92-4.52a1 1 0 1 1 .91-1.78l8.92 4.52a3 3 0 0 1 1.32 4L98.5 66.65c-.43.83-1 1.13-2.31 2.1a1 1 0 0 1-1.05.09z" data-original="#8fa2ff"></path><path fill="#323FD4" d="M95.23 53.19a1 1 0 0 1-.45-1.35l1.81-3.57a1 1 0 1 1 1.79.91l-1.81 3.57a1 1 0 0 1-1.34.44zM84.414 65.657l7.136 3.616-8.136 16.056-7.136-3.616z" data-original="#323fd4"></path><path fill="#FFFFFF" d="M51 39a2 2 0 0 1-2-2v-.42a6.81 6.81 0 0 1 3.82-6A4 4 0 1 0 47 27a2 2 0 0 1-4 0 8 8 0 1 1 11.64 7.12A2.84 2.84 0 0 0 53 36.58V37a2 2 0 0 1-2 2z" data-original="#ffffff"></path></g></svg>